<svg width="173" height="341" viewBox="0 0 173 341" fill="none" xmlns="http://www.w3.org/2000/svg">
<path d="M154.063 3.19824H42.3674V18.232H154.063V3.19824Z" fill="#0F8EE3"/>
<path d="M148.292 18.2322H48.1384V145.86H148.292V18.2322Z" fill="#DEDDE1"/>
<path d="M77.9981 36.3303H62.5919V55.9768H77.9981V36.3303Z" fill="#0F8EE3"/>
<path d="M105.922 36.3303H90.5157V55.9768H105.922V36.3303Z" fill="#0F8EE3"/>
<path d="M133.846 36.3303H118.44V55.9768H133.846V36.3303Z" fill="#0F8EE3"/>
<path d="M77.9981 71.53H62.5919V91.1765H77.9981V71.53Z" fill="#0F8EE3"/>
<path d="M70.2957 108.607H59.5394V128.794H70.2957V108.607Z" fill="#0F8EE3"/>
<path d="M136.98 108.607H126.223V128.794H136.98V108.607Z" fill="#0F8EE3"/>
<path d="M105.922 71.53H90.5157V91.1765H105.922V71.53Z" fill="#0F8EE3"/>
<path d="M133.846 72.2224H118.44V91.8689H133.846V72.2224Z" fill="#0F8EE3"/>
<path d="M114.909 102.544H81.5287V145.86H114.909V102.544Z" fill="#C2EDFF"/>
<path d="M102.71 120.192L102.681 120.222C101.427 121.471 101.427 123.496 102.681 124.745C103.307 125.37 104.129 125.682 104.95 125.682C105.771 125.682 106.593 125.37 107.219 124.745L107.249 124.716C108.502 123.467 108.502 121.441 107.249 120.192C105.996 118.943 103.964 118.943 102.71 120.192Z" fill="black"/>
<path d="M77.9968 47.1343C76.2244 47.1343 74.7871 48.5663 74.7871 50.333V50.4138C74.7871 52.1804 76.2244 53.6125 77.9968 53.6125C79.7692 53.6125 81.2064 52.1804 81.2064 50.4138V50.333C81.2061 48.5663 79.7688 47.1343 77.9968 47.1343Z" fill="black"/>
<path d="M105.915 47.1343C104.143 47.1343 102.705 48.5663 102.705 50.333V50.4138C102.705 52.1804 104.143 53.6125 105.915 53.6125C107.687 53.6125 109.125 52.1804 109.125 50.4138V50.333C109.125 48.5663 107.688 47.1343 105.915 47.1343Z" fill="black"/>
<path d="M56.4366 60.9606H139.994C141.767 60.9606 143.204 59.5285 143.204 57.7619C143.204 55.9953 141.767 54.5632 139.994 54.5632H121.648V39.5295H130.635V40.5534C130.635 42.3201 132.072 43.7521 133.845 43.7521C135.617 43.7521 137.055 42.3201 137.055 40.5534V36.3308C137.055 34.5641 135.617 33.1321 133.845 33.1321H118.439C116.666 33.1321 115.229 34.5641 115.229 36.3308V54.5632H93.7188V39.5295H102.706V40.5534C102.706 42.3201 104.143 43.7521 105.915 43.7521C107.688 43.7521 109.125 42.3201 109.125 40.5534V36.3308C109.125 34.5641 107.688 33.1321 105.915 33.1321H90.5092C88.7368 33.1321 87.2995 34.5641 87.2995 36.3308V54.5632H65.8005V39.5295H74.7874V40.5534C74.7874 42.3201 76.2247 43.7521 77.9971 43.7521C79.7695 43.7521 81.2067 42.3201 81.2067 40.5534V36.3308C81.2067 34.5641 79.7695 33.1321 77.9971 33.1321H62.5908C60.8184 33.1321 59.3811 34.5641 59.3811 36.3308V54.5632H56.4366C54.6642 54.5632 53.2269 55.9953 53.2269 57.7619C53.2269 59.5285 54.6642 60.9606 56.4366 60.9606Z" fill="black"/>
<path d="M77.9968 82.2932C76.2244 82.2932 74.7871 83.7253 74.7871 85.4919V85.5727C74.7871 87.3394 76.2244 88.7714 77.9968 88.7714C79.7692 88.7714 81.2064 87.3394 81.2064 85.5727V85.4919C81.2061 83.7253 79.7688 82.2932 77.9968 82.2932Z" fill="black"/>
<path d="M105.915 82.2932C104.143 82.2932 102.705 83.7253 102.705 85.4919V85.5727C102.705 87.3394 104.143 88.7714 105.915 88.7714C107.687 88.7714 109.125 87.3394 109.125 85.5727V85.4919C109.125 83.7253 107.688 82.2932 105.915 82.2932Z" fill="black"/>
<path d="M154.063 21.4311C155.835 21.4311 157.273 19.9991 157.273 18.2324V3.19869C157.273 1.43205 155.835 0 154.063 0H42.3675C40.5951 0 39.1578 1.43205 39.1578 3.19869V18.2324C39.1578 19.9991 40.5951 21.4311 42.3675 21.4311H44.9293V56.1931C41.1198 52.6356 35.9463 50.4058 30.3417 50.4058C19.2395 50.4058 10.2074 59.3921 10.2074 70.4382C10.2074 73.0525 10.721 75.6313 11.7076 78.0289C4.33821 83.728 0.0168945 92.428 0.0168945 101.825C0.0168945 117.378 11.9085 130.218 27.1219 131.823V142.661H3.20965C1.43726 142.661 0 144.093 0 145.86C0 147.627 1.43726 149.059 3.20965 149.059H154.063C155.835 149.059 157.273 147.627 157.273 145.86C157.273 144.093 155.835 142.661 154.063 142.661H151.501V21.4311H154.063ZM45.5771 6.39738H150.854V15.0338H148.292H48.139H45.5771V6.39738ZM6.4359 101.825C6.4359 93.6593 10.5824 86.1592 17.5279 81.7627C18.9962 80.8333 19.4542 78.9065 18.5603 77.4191C17.2954 75.3145 16.627 72.9004 16.627 70.4382C16.627 62.9201 22.7797 56.8032 30.3423 56.8032C38.103 56.8032 44.9106 63.1745 44.9106 70.4382C44.9106 70.5549 44.9176 70.6706 44.9302 70.7842V120.653C41.5725 123.233 37.6923 124.843 33.5418 125.387V106.566C33.5418 106.565 33.5418 106.564 33.5418 106.563V85.8268L39.6195 79.7701C40.8728 78.5211 40.8728 76.4955 39.6195 75.2465C38.3663 73.9975 36.3343 73.9975 35.0801 75.2465L33.5418 76.7796V73.9504C33.5418 72.1838 32.1045 70.7517 30.3321 70.7517C28.5597 70.7517 27.1225 72.1838 27.1225 73.9504V84.5C27.1225 84.501 27.1225 84.5022 27.1225 84.5031V98.8413L20.6095 92.3506C19.3565 91.1016 17.3249 91.1016 16.0701 92.3506C14.8168 93.5996 14.8168 95.6252 16.0701 96.8742L27.1219 107.889V125.374C15.4579 123.805 6.4359 113.846 6.4359 101.825ZM33.5409 131.817C37.5375 131.392 41.4162 130.183 44.9293 128.268V142.661H33.5409V131.817ZM89.2434 142.661L99.8777 132.063C101.131 130.814 101.131 128.789 99.8777 127.54C98.6244 126.291 96.5925 126.291 95.3383 127.54L84.7368 138.105V127.212L106.28 105.743H111.698V142.661L89.2434 142.661ZM84.7368 118.165V105.743H97.2013L84.7368 118.165ZM145.082 142.661H118.117V102.544C118.117 100.778 116.68 99.3455 114.908 99.3455H104.952H104.949H81.5269C79.7545 99.3455 78.3172 100.778 78.3172 102.544V142.661H51.3486V21.4311H145.082L145.082 142.661Z" fill="black"/>
<path d="M70.1291 105.409H59.5371C57.7647 105.409 56.3275 106.841 56.3275 108.608V128.133C56.3275 129.9 57.7647 131.332 59.5371 131.332C61.3095 131.332 62.7468 129.9 62.7468 128.133V111.806H66.9194V112.455C66.9194 114.221 68.3567 115.653 70.1291 115.653C71.9014 115.653 73.3387 114.221 73.3387 112.455V108.608C73.3387 106.841 71.9018 105.409 70.1291 105.409Z" fill="black"/>
<path d="M70.1293 118.167C68.3569 118.167 66.9196 119.599 66.9196 121.365V121.439C66.9196 123.206 68.3569 124.638 70.1293 124.638C71.9017 124.638 73.3389 123.206 73.3389 121.439V121.365C73.3389 119.599 71.902 118.167 70.1293 118.167Z" fill="black"/>
<path d="M136.898 105.409H126.306C124.534 105.409 123.096 106.841 123.096 108.608V128.133C123.096 129.9 124.534 131.332 126.306 131.332C128.078 131.332 129.516 129.9 129.516 128.133V111.806H133.688V112.455C133.688 114.221 135.126 115.653 136.898 115.653C138.67 115.653 140.108 114.221 140.108 112.455V108.608C140.108 106.841 138.67 105.409 136.898 105.409Z" fill="black"/>
<path d="M136.898 118.167C135.125 118.167 133.688 119.599 133.688 121.365V121.439C133.688 123.206 135.125 124.638 136.898 124.638C138.67 124.638 140.107 123.206 140.107 121.439V121.365C140.107 119.599 138.67 118.167 136.898 118.167Z" fill="black"/>
<path d="M48.1195 122.469C43.4612 126.221 36.802 128.794 30.3415 128.794C15.3659 128.794 3.22577 116.72 3.22577 101.825C3.22577 92.2506 8.2459 83.8481 15.8064 79.0622C14.2902 76.5397 13.4166 73.5905 13.4166 70.4378C13.4166 61.1408 20.9942 53.604 30.3415 53.604C39.6888 53.604 48.1195 61.1408 48.1195 70.4378V122.469V122.469Z" fill="#348E00"/>
<path d="M133.845 47.1343C132.072 47.1343 130.635 48.5663 130.635 50.333V50.4138C130.635 52.1804 132.072 53.6125 133.845 53.6125C135.617 53.6125 137.054 52.1804 137.054 50.4138V50.333C137.054 48.5663 135.617 47.1343 133.845 47.1343Z" fill="black"/>
<path d="M56.4366 96.1205H139.994C141.767 96.1205 143.204 94.6884 143.204 92.9218C143.204 91.1551 141.767 89.7231 139.994 89.7231H121.648V73.9963H130.635V75.0202C130.635 76.7869 132.072 78.2189 133.845 78.2189C135.617 78.2189 137.055 76.7869 137.055 75.0202V70.7976C137.055 69.0309 135.617 67.5989 133.845 67.5989H118.439C116.666 67.5989 115.229 69.0309 115.229 70.7976V89.7231H93.7188V74.6893H102.706V75.7133C102.706 77.48 104.143 78.912 105.915 78.912C107.688 78.912 109.125 77.48 109.125 75.7133V71.4906C109.125 69.724 107.688 68.2919 105.915 68.2919H90.5092C88.7368 68.2919 87.2995 69.724 87.2995 71.4906V89.7231H65.8005V74.6893H74.7874V75.7133C74.7874 77.48 76.2247 78.912 77.9971 78.912C79.7695 78.912 81.2067 77.48 81.2067 75.7133V71.4906C81.2067 69.724 79.7695 68.2919 77.9971 68.2919H62.5908C60.8184 68.2919 59.3811 69.724 59.3811 71.4906V89.7231H56.4366C54.6642 89.7231 53.2269 91.1551 53.2269 92.9218C53.2269 94.6884 54.6642 96.1205 56.4366 96.1205Z" fill="black"/>
<path d="M133.845 82.2932C132.072 82.2932 130.635 83.7253 130.635 85.4919V85.5727C130.635 87.3394 132.072 88.7714 133.845 88.7714C135.617 88.7714 137.054 87.3394 137.054 85.5727V85.4919C137.054 83.7253 135.617 82.2932 133.845 82.2932Z" fill="black"/>
<path d="M173 319.745C173 325.382 170.975 330.789 167.37 334.775C163.765 338.761 158.876 341 153.778 341H19.2222C14.1242 341 9.23492 338.761 5.63006 334.775C2.02519 330.789 0 325.382 0 319.745V170.962C0 165.325 2.02519 159.919 5.63006 155.933C9.23492 151.947 14.1242 149.707 19.2222 149.707H153.778C158.876 149.707 163.765 151.947 167.37 155.933C170.975 159.919 173 165.325 173 170.962V319.745Z" fill="#3B88C3"/>
<path d="M47.6951 197.701C47.6951 190.947 52.1643 185.511 58.868 185.511C65.2738 185.511 70.0409 190.123 70.0409 197.701V233.286L106.693 190.118C108.336 188.141 111.162 185.506 115.338 185.506C120.999 185.506 126.367 190.283 126.367 197.366C126.367 201.649 123.983 205.108 119.062 210.544L90.8971 241.188L125.314 280.897C128.89 284.85 131.576 288.474 131.576 293.421C131.576 301.163 126.069 304.787 119.956 304.787C115.641 304.787 112.806 301.992 108.63 297.045L70.0361 250.912V292.922C70.0361 299.351 65.567 304.782 58.8632 304.782C52.4574 304.782 47.6903 300.175 47.6903 292.922V197.701H47.6951Z" fill="white"/>
</svg>
