<svg width="317" height="660" viewBox="0 0 317 660" fill="none" xmlns="http://www.w3.org/2000/svg">
<g id="kejatek-lgo">
<g id="building">
<path id="Vector" d="M282.3 6.19019H77.6328V35.2878H282.3V6.19019Z" fill="#0F8EE3"/>
<path id="Vector_2" d="M271.726 35.2881H88.2074V282.309H271.726V35.2881Z" fill="#DEDDE1"/>
<g id="Group">
<path id="Vector_3" d="M142.921 70.3167H114.691V108.342H142.921V70.3167Z" fill="#0F8EE3"/>
<path id="Vector_4" d="M194.088 70.3167H165.858V108.342H194.088V70.3167Z" fill="#0F8EE3"/>
<path id="Vector_5" d="M245.256 70.3167H217.026V108.342H245.256V70.3167Z" fill="#0F8EE3"/>
<path id="Vector_6" d="M142.921 138.445H114.691V176.47H142.921V138.445Z" fill="#0F8EE3"/>
<path id="Vector_7" d="M128.808 210.208H109.098V249.28H128.808V210.208Z" fill="#0F8EE3"/>
<path id="Vector_8" d="M250.997 210.208H231.288V249.28H250.997V210.208Z" fill="#0F8EE3"/>
<path id="Vector_9" d="M194.088 138.445H165.858V176.47H194.088V138.445Z" fill="#0F8EE3"/>
<path id="Vector_10" d="M245.256 139.785H217.026V177.811H245.256V139.785Z" fill="#0F8EE3"/>
</g>
<path id="Vector_11" d="M210.556 198.472H149.391V282.31H210.556V198.472Z" fill="#C2EDFF"/>
<path id="Vector_12" d="M188.203 232.629L188.149 232.687C185.852 235.104 185.852 239.025 188.149 241.443C189.298 242.652 190.803 243.256 192.307 243.256C193.812 243.256 195.317 242.652 196.466 241.443L196.52 241.385C198.817 238.968 198.817 235.047 196.52 232.629C194.223 230.212 190.5 230.212 188.203 232.629Z" fill="black"/>
<path id="Vector_13" d="M142.919 91.2278C139.671 91.2278 137.038 93.9995 137.038 97.4188V97.5752C137.038 100.995 139.671 103.766 142.919 103.766C146.167 103.766 148.8 100.995 148.8 97.5752V97.4188C148.8 93.9995 146.166 91.2278 142.919 91.2278Z" fill="black"/>
<path id="Vector_14" d="M194.075 91.2278C190.828 91.2278 188.194 93.9995 188.194 97.4188V97.5752C188.194 100.995 190.828 103.766 194.075 103.766C197.323 103.766 199.957 100.995 199.957 97.5752V97.4188C199.957 93.9995 197.324 91.2278 194.075 91.2278Z" fill="black"/>
<path id="Vector_15" d="M103.413 117.988H256.522C259.769 117.988 262.403 115.216 262.403 111.797C262.403 108.378 259.769 105.606 256.522 105.606H222.905V76.5085H239.372V78.4904C239.372 81.9097 242.006 84.6814 245.253 84.6814C248.501 84.6814 251.135 81.9097 251.135 78.4904V70.3175C251.135 66.8982 248.501 64.1265 245.253 64.1265H217.023C213.776 64.1265 211.142 66.8982 211.142 70.3175V105.606H171.728V76.5085H188.195V78.4904C188.195 81.9097 190.829 84.6814 194.076 84.6814C197.324 84.6814 199.958 81.9097 199.958 78.4904V70.3175C199.958 66.8982 197.324 64.1265 194.076 64.1265H165.846C162.599 64.1265 159.965 66.8982 159.965 70.3175V105.606H120.571V76.5085H137.038V78.4904C137.038 81.9097 139.672 84.6814 142.919 84.6814C146.167 84.6814 148.801 81.9097 148.801 78.4904V70.3175C148.801 66.8982 146.167 64.1265 142.919 64.1265H114.689C111.442 64.1265 108.808 66.8982 108.808 70.3175V105.606H103.413C100.165 105.606 97.5314 108.378 97.5314 111.797C97.5314 115.216 100.165 117.988 103.413 117.988Z" fill="black"/>
<path id="Vector_16" d="M142.919 159.277C139.671 159.277 137.038 162.049 137.038 165.468V165.625C137.038 169.044 139.671 171.816 142.919 171.816C146.167 171.816 148.8 169.044 148.8 165.625V165.468C148.8 162.049 146.166 159.277 142.919 159.277Z" fill="black"/>
<path id="Vector_17" d="M194.075 159.277C190.828 159.277 188.194 162.049 188.194 165.468V165.625C188.194 169.044 190.828 171.816 194.075 171.816C197.323 171.816 199.957 169.044 199.957 165.625V165.468C199.957 162.049 197.324 159.277 194.075 159.277Z" fill="black"/>
<path id="Vector_18" d="M282.301 41.4796C285.548 41.4796 288.182 38.7079 288.182 35.2886V6.19101C288.182 2.77171 285.548 0 282.301 0H77.6329C74.3852 0 71.7516 2.77171 71.7516 6.19101V35.2886C71.7516 38.7079 74.3852 41.4796 77.6329 41.4796H82.3271V108.761C75.3466 101.875 65.867 97.5596 55.5971 97.5596C35.2539 97.5596 18.7037 114.952 18.7037 136.332C18.7037 141.392 19.6448 146.383 21.4527 151.024C7.9492 162.054 0.030957 178.893 0.030957 197.081C0.030957 227.183 21.8208 252.036 49.6973 255.142V276.118H5.88127C2.6336 276.118 0 278.89 0 282.309C0 285.729 2.6336 288.5 5.88127 288.5H282.301C285.548 288.5 288.182 285.729 288.182 282.309C288.182 278.89 285.548 276.118 282.301 276.118H277.606V41.4796H282.301ZM83.5142 12.382H276.42V29.0976H271.726H88.2084H83.5142V12.382ZM11.7929 197.081C11.7929 181.276 19.3909 166.76 32.1176 158.25C34.8081 156.452 35.6473 152.722 34.0094 149.843C31.6916 145.77 30.4668 141.098 30.4668 136.332C30.4668 121.781 41.7408 109.942 55.5983 109.942C69.8188 109.942 82.2928 122.273 82.2928 136.332C82.2928 136.558 82.3057 136.782 82.3288 137.002V233.522C76.1763 238.516 69.0663 241.631 61.461 242.684V206.256C61.461 206.255 61.461 206.252 61.461 206.25V166.116L72.5976 154.394C74.8941 151.976 74.8941 148.056 72.5976 145.638C70.3012 143.221 66.5779 143.221 64.2797 145.638L61.461 148.606V143.13C61.461 139.71 58.8274 136.939 55.5797 136.939C52.332 136.939 49.6984 139.71 49.6984 143.13V163.548C49.6984 163.55 49.6984 163.553 49.6984 163.554V191.306L37.7642 178.743C35.4683 176.326 31.7456 176.326 29.4463 178.743C27.1499 181.16 27.1499 185.081 29.4463 187.498L49.6973 208.817V242.659C28.3246 239.622 11.7929 220.348 11.7929 197.081ZM61.4593 255.13C68.7826 254.308 75.8898 251.966 82.3271 248.26V276.118H61.4593V255.13ZM163.527 276.118L183.013 255.606C185.309 253.189 185.309 249.268 183.013 246.851C180.716 244.433 176.993 244.433 174.695 246.851L155.269 267.3V246.217L194.744 204.664H204.672V276.118L163.527 276.118ZM155.269 228.706V204.664H178.109L155.269 228.706ZM265.844 276.118H216.435V198.473C216.435 195.053 213.801 192.282 210.553 192.282H192.31H192.305H149.387C146.14 192.282 143.506 195.053 143.506 198.473V276.118H94.0897V41.4796H265.843L265.844 276.118Z" fill="black"/>
<path id="Vector_19" d="M128.502 204.017H109.094C105.846 204.017 103.213 206.789 103.213 210.208V248C103.213 251.419 105.846 254.191 109.094 254.191C112.342 254.191 114.975 251.419 114.975 248V216.399H122.621V217.654C122.621 221.074 125.255 223.845 128.502 223.845C131.75 223.845 134.384 221.074 134.384 217.654V210.208C134.384 206.789 131.751 204.017 128.502 204.017Z" fill="black"/>
<path id="Vector_20" d="M128.503 228.71C125.255 228.71 122.621 231.481 122.621 234.901V235.044C122.621 238.463 125.255 241.235 128.503 241.235C131.75 241.235 134.384 238.463 134.384 235.044V234.901C134.384 231.481 131.751 228.71 128.503 228.71Z" fill="black"/>
<path id="Vector_21" d="M250.848 204.017H231.439C228.192 204.017 225.558 206.789 225.558 210.208V248C225.558 251.419 228.192 254.191 231.439 254.191C234.687 254.191 237.321 251.419 237.321 248V216.399H244.966V217.654C244.966 221.074 247.6 223.845 250.848 223.845C254.095 223.845 256.729 221.074 256.729 217.654V210.208C256.729 206.789 254.095 204.017 250.848 204.017Z" fill="black"/>
<path id="Vector_22" d="M250.847 228.71C247.599 228.71 244.966 231.481 244.966 234.901V235.044C244.966 238.463 247.599 241.235 250.847 241.235C254.095 241.235 256.728 238.463 256.728 235.044V234.901C256.728 231.481 254.095 228.71 250.847 228.71Z" fill="black"/>
</g>
<g id="k">
<path id="Vector_23" d="M88.1727 237.037C79.637 244.298 67.4349 249.28 55.5969 249.28C28.1561 249.28 5.91089 225.909 5.91089 197.08C5.91089 178.549 15.1096 162.287 28.9632 153.023C26.1849 148.141 24.5842 142.433 24.5842 136.331C24.5842 118.337 38.4692 103.75 55.5969 103.75C72.7246 103.75 88.1727 118.337 88.1727 136.331V237.036V237.037Z" fill="#348E00"/>
<path id="Vector_24" d="M245.253 91.2278C242.005 91.2278 239.372 93.9995 239.372 97.4188V97.5752C239.372 100.995 242.005 103.766 245.253 103.766C248.501 103.766 251.134 100.995 251.134 97.5752V97.4188C251.134 93.9995 248.501 91.2278 245.253 91.2278Z" fill="black"/>
<path id="Vector_25" d="M103.413 186.04H256.522C259.769 186.04 262.403 183.268 262.403 179.848C262.403 176.429 259.769 173.657 256.522 173.657H222.905V143.218H239.372V145.2C239.372 148.62 242.006 151.391 245.253 151.391C248.501 151.391 251.135 148.62 251.135 145.2V137.027C251.135 133.608 248.501 130.836 245.253 130.836H217.023C213.776 130.836 211.142 133.608 211.142 137.027V173.657H171.728V144.56H188.195V146.542C188.195 149.961 190.829 152.733 194.076 152.733C197.324 152.733 199.958 149.961 199.958 146.542V138.369C199.958 134.95 197.324 132.178 194.076 132.178H165.846C162.599 132.178 159.965 134.95 159.965 138.369V173.657H120.571V144.56H137.038V146.542C137.038 149.961 139.672 152.733 142.919 152.733C146.167 152.733 148.801 149.961 148.801 146.542V138.369C148.801 134.95 146.167 132.178 142.919 132.178H114.689C111.442 132.178 108.808 134.95 108.808 138.369V173.657H103.413C100.165 173.657 97.5314 176.429 97.5314 179.848C97.5314 183.268 100.165 186.04 103.413 186.04Z" fill="black"/>
<path id="Vector_26" d="M245.253 159.277C242.005 159.277 239.372 162.049 239.372 165.468V165.625C239.372 169.044 242.005 171.816 245.253 171.816C248.501 171.816 251.134 169.044 251.134 165.625V165.468C251.134 162.049 248.501 159.277 245.253 159.277Z" fill="black"/>
<path id="Vector_27" d="M317 618.862C317 629.772 313.289 640.236 306.684 647.951C300.078 655.666 291.119 660 281.778 660H35.2222C25.8807 660 16.9218 655.666 10.3164 647.951C3.7109 640.236 0 629.772 0 618.862V330.894C0 319.984 3.7109 309.52 10.3164 301.805C16.9218 294.09 25.8807 289.756 35.2222 289.756H281.778C291.119 289.756 300.078 294.09 306.684 301.805C313.289 309.52 317 319.984 317 330.894V618.862Z" fill="#3B88C3"/>
<path id="Vector_28" d="M87.395 382.646C87.395 369.575 95.5842 359.053 107.868 359.053C119.606 359.053 128.341 367.98 128.341 382.646V451.522L195.501 367.97C198.512 364.144 203.69 359.043 211.342 359.043C221.715 359.043 231.551 368.289 231.551 381.998C231.551 390.288 227.183 396.983 218.166 407.504L166.557 466.815L229.622 543.671C236.174 551.323 241.096 558.337 241.096 567.912C241.096 582.897 231.005 589.911 219.804 589.911C211.897 589.911 206.702 584.501 199.049 574.926L128.332 485.636V566.945C128.332 579.39 120.143 589.901 107.859 589.901C96.1213 589.901 87.3862 580.984 87.3862 566.945V382.646H87.395Z" fill="white"/>
</g>
</g>
</svg>
