<svg xmlns="http://www.w3.org/2000/svg" version="1.1" xmlns:xlink="http://www.w3.org/1999/xlink" xmlns:svgjs="http://svgjs.com/svgjs" width="1920" height="1096" preserveAspectRatio="none" viewBox="0 0 1920 1096"><g mask="url(&quot;#SvgjsMask1083&quot;)" fill="none"><rect width="1920" height="1096" x="0" y="0" fill="rgba(237, 232, 232, 1)"></rect><path d="M113.26 -39.07L286.47 60.93L286.47 260.93L113.26 360.93L-59.95 260.93L-59.95 60.93zM286.47 860.93L459.68 960.93L459.68 1160.93L286.47 1260.93L113.26 1160.93L113.26 960.93zM1152.52 -39.07L1325.73 60.93L1325.73 260.93L1152.52 360.93L979.31 260.93L979.31 60.93zM1325.73 260.93L1498.94 360.93L1498.94 560.93L1325.73 660.93L1152.52 560.93L1152.52 360.93zM2018.57 260.93L2191.78 360.93L2191.78 560.93L2018.57 660.93L1845.36 560.93L1845.36 360.93z" stroke="#03305d" stroke-width="2"></path><path d="M93.26 -39.07 a20 20 0 1 0 40 0 a20 20 0 1 0 -40 0zM266.47 60.93 a20 20 0 1 0 40 0 a20 20 0 1 0 -40 0zM266.47 260.93 a20 20 0 1 0 40 0 a20 20 0 1 0 -40 0zM93.26 360.93 a20 20 0 1 0 40 0 a20 20 0 1 0 -40 0zM-79.95 260.93 a20 20 0 1 0 40 0 a20 20 0 1 0 -40 0zM-79.95 60.93 a20 20 0 1 0 40 0 a20 20 0 1 0 -40 0zM266.47 860.93 a20 20 0 1 0 40 0 a20 20 0 1 0 -40 0zM439.68 960.93 a20 20 0 1 0 40 0 a20 20 0 1 0 -40 0zM439.68 1160.93 a20 20 0 1 0 40 0 a20 20 0 1 0 -40 0zM266.47 1260.93 a20 20 0 1 0 40 0 a20 20 0 1 0 -40 0zM93.26 1160.93 a20 20 0 1 0 40 0 a20 20 0 1 0 -40 0zM93.26 960.93 a20 20 0 1 0 40 0 a20 20 0 1 0 -40 0zM1132.52 -39.07 a20 20 0 1 0 40 0 a20 20 0 1 0 -40 0zM1305.73 60.93 a20 20 0 1 0 40 0 a20 20 0 1 0 -40 0zM1305.73 260.93 a20 20 0 1 0 40 0 a20 20 0 1 0 -40 0zM1132.52 360.93 a20 20 0 1 0 40 0 a20 20 0 1 0 -40 0zM959.31 260.93 a20 20 0 1 0 40 0 a20 20 0 1 0 -40 0zM959.31 60.93 a20 20 0 1 0 40 0 a20 20 0 1 0 -40 0zM1478.94 360.93 a20 20 0 1 0 40 0 a20 20 0 1 0 -40 0zM1478.94 560.93 a20 20 0 1 0 40 0 a20 20 0 1 0 -40 0zM1305.73 660.93 a20 20 0 1 0 40 0 a20 20 0 1 0 -40 0zM1132.52 560.93 a20 20 0 1 0 40 0 a20 20 0 1 0 -40 0zM1998.57 260.93 a20 20 0 1 0 40 0 a20 20 0 1 0 -40 0zM2171.78 360.93 a20 20 0 1 0 40 0 a20 20 0 1 0 -40 0zM2171.78 560.93 a20 20 0 1 0 40 0 a20 20 0 1 0 -40 0zM1998.57 660.93 a20 20 0 1 0 40 0 a20 20 0 1 0 -40 0zM1825.36 560.93 a20 20 0 1 0 40 0 a20 20 0 1 0 -40 0zM1825.36 360.93 a20 20 0 1 0 40 0 a20 20 0 1 0 -40 0z" fill="#03305d"></path></g><defs><mask id="SvgjsMask1083"><rect width="1920" height="1096" fill="#ffffff"></rect></mask></defs></svg>