<svg xmlns="http://www.w3.org/2000/svg" version="1.1" xmlns:xlink="http://www.w3.org/1999/xlink" xmlns:svgjs="http://svgjs.com/svgjs" width="640" height="640" preserveAspectRatio="none" viewBox="0 0 640 640"><g mask="url(&quot;#SvgjsMask1337&quot;)" fill="none"><rect width="640" height="640" x="0" y="0" fill="rgba(241, 241, 241, 1)"></rect><path d="M59.5 -0.9L113.2 30.1L113.2 92.1L59.5 123.1L5.8 92.1L5.8 30.1zM59.5 185.1L113.2 216.1L113.2 278.1L59.5 309.1L5.8 278.1L5.8 216.1zM166.89 -0.9L220.59 30.1L220.59 92.1L166.89 123.1L113.2 92.1L113.2 30.1zM220.59 278.1L274.28 309.1L274.28 371.1L220.59 402.1L166.89 371.1L166.89 309.1zM220.59 464.1L274.28 495.1L274.28 557.1L220.59 588.1L166.89 557.1L166.89 495.1zM166.89 557.1L220.59 588.1L220.59 650.1L166.89 681.1L113.2 650.1L113.2 588.1zM327.98 278.1L381.67 309.1L381.67 371.1L327.98 402.1L274.28 371.1L274.28 309.1zM327.98 650.1L381.67 681.1L381.67 743.1L327.98 774.1L274.28 743.1L274.28 681.1zM381.67 -0.9L435.37 30.1L435.37 92.1L381.67 123.1L327.98 92.1L327.98 30.1zM435.37 278.1L489.06 309.1L489.06 371.1L435.37 402.1L381.67 371.1L381.67 309.1zM381.67 371.1L435.37 402.1L435.37 464.1L381.67 495.1L327.98 464.1L327.98 402.1zM381.67 557.1L435.37 588.1L435.37 650.1L381.67 681.1L327.98 650.1L327.98 588.1zM435.37 650.1L489.06 681.1L489.06 743.1L435.37 774.1L381.67 743.1L381.67 681.1zM489.06 -0.9L542.76 30.1L542.76 92.1L489.06 123.1L435.37 92.1L435.37 30.1zM489.06 185.1L542.76 216.1L542.76 278.1L489.06 309.1L435.37 278.1L435.37 216.1zM489.06 557.1L542.76 588.1L542.76 650.1L489.06 681.1L435.37 650.1L435.37 588.1zM596.45 557.1L650.15 588.1L650.15 650.1L596.45 681.1L542.76 650.1L542.76 588.1z" stroke="#03305d" stroke-width="2"></path><path d="M53.3 -0.9 a6.2 6.2 0 1 0 12.4 0 a6.2 6.2 0 1 0 -12.4 0zM107 30.1 a6.2 6.2 0 1 0 12.4 0 a6.2 6.2 0 1 0 -12.4 0zM107 92.1 a6.2 6.2 0 1 0 12.4 0 a6.2 6.2 0 1 0 -12.4 0zM53.3 123.1 a6.2 6.2 0 1 0 12.4 0 a6.2 6.2 0 1 0 -12.4 0zM-0.4 92.1 a6.2 6.2 0 1 0 12.4 0 a6.2 6.2 0 1 0 -12.4 0zM-0.4 30.1 a6.2 6.2 0 1 0 12.4 0 a6.2 6.2 0 1 0 -12.4 0zM53.3 185.1 a6.2 6.2 0 1 0 12.4 0 a6.2 6.2 0 1 0 -12.4 0zM107 216.1 a6.2 6.2 0 1 0 12.4 0 a6.2 6.2 0 1 0 -12.4 0zM107 278.1 a6.2 6.2 0 1 0 12.4 0 a6.2 6.2 0 1 0 -12.4 0zM53.3 309.1 a6.2 6.2 0 1 0 12.4 0 a6.2 6.2 0 1 0 -12.4 0zM-0.4 278.1 a6.2 6.2 0 1 0 12.4 0 a6.2 6.2 0 1 0 -12.4 0zM-0.4 216.1 a6.2 6.2 0 1 0 12.4 0 a6.2 6.2 0 1 0 -12.4 0zM160.69 -0.9 a6.2 6.2 0 1 0 12.4 0 a6.2 6.2 0 1 0 -12.4 0zM214.39 30.1 a6.2 6.2 0 1 0 12.4 0 a6.2 6.2 0 1 0 -12.4 0zM214.39 92.1 a6.2 6.2 0 1 0 12.4 0 a6.2 6.2 0 1 0 -12.4 0zM160.69 123.1 a6.2 6.2 0 1 0 12.4 0 a6.2 6.2 0 1 0 -12.4 0zM214.39 278.1 a6.2 6.2 0 1 0 12.4 0 a6.2 6.2 0 1 0 -12.4 0zM268.08 309.1 a6.2 6.2 0 1 0 12.4 0 a6.2 6.2 0 1 0 -12.4 0zM268.08 371.1 a6.2 6.2 0 1 0 12.4 0 a6.2 6.2 0 1 0 -12.4 0zM214.39 402.1 a6.2 6.2 0 1 0 12.4 0 a6.2 6.2 0 1 0 -12.4 0zM160.69 371.1 a6.2 6.2 0 1 0 12.4 0 a6.2 6.2 0 1 0 -12.4 0zM160.69 309.1 a6.2 6.2 0 1 0 12.4 0 a6.2 6.2 0 1 0 -12.4 0zM214.39 464.1 a6.2 6.2 0 1 0 12.4 0 a6.2 6.2 0 1 0 -12.4 0zM268.08 495.1 a6.2 6.2 0 1 0 12.4 0 a6.2 6.2 0 1 0 -12.4 0zM268.08 557.1 a6.2 6.2 0 1 0 12.4 0 a6.2 6.2 0 1 0 -12.4 0zM214.39 588.1 a6.2 6.2 0 1 0 12.4 0 a6.2 6.2 0 1 0 -12.4 0zM160.69 557.1 a6.2 6.2 0 1 0 12.4 0 a6.2 6.2 0 1 0 -12.4 0zM160.69 495.1 a6.2 6.2 0 1 0 12.4 0 a6.2 6.2 0 1 0 -12.4 0zM214.39 650.1 a6.2 6.2 0 1 0 12.4 0 a6.2 6.2 0 1 0 -12.4 0zM160.69 681.1 a6.2 6.2 0 1 0 12.4 0 a6.2 6.2 0 1 0 -12.4 0zM107 650.1 a6.2 6.2 0 1 0 12.4 0 a6.2 6.2 0 1 0 -12.4 0zM107 588.1 a6.2 6.2 0 1 0 12.4 0 a6.2 6.2 0 1 0 -12.4 0zM321.78 278.1 a6.2 6.2 0 1 0 12.4 0 a6.2 6.2 0 1 0 -12.4 0zM375.47 309.1 a6.2 6.2 0 1 0 12.4 0 a6.2 6.2 0 1 0 -12.4 0zM375.47 371.1 a6.2 6.2 0 1 0 12.4 0 a6.2 6.2 0 1 0 -12.4 0zM321.78 402.1 a6.2 6.2 0 1 0 12.4 0 a6.2 6.2 0 1 0 -12.4 0zM321.78 650.1 a6.2 6.2 0 1 0 12.4 0 a6.2 6.2 0 1 0 -12.4 0zM375.47 681.1 a6.2 6.2 0 1 0 12.4 0 a6.2 6.2 0 1 0 -12.4 0zM375.47 743.1 a6.2 6.2 0 1 0 12.4 0 a6.2 6.2 0 1 0 -12.4 0zM321.78 774.1 a6.2 6.2 0 1 0 12.4 0 a6.2 6.2 0 1 0 -12.4 0zM268.08 743.1 a6.2 6.2 0 1 0 12.4 0 a6.2 6.2 0 1 0 -12.4 0zM268.08 681.1 a6.2 6.2 0 1 0 12.4 0 a6.2 6.2 0 1 0 -12.4 0zM375.47 -0.9 a6.2 6.2 0 1 0 12.4 0 a6.2 6.2 0 1 0 -12.4 0zM429.17 30.1 a6.2 6.2 0 1 0 12.4 0 a6.2 6.2 0 1 0 -12.4 0zM429.17 92.1 a6.2 6.2 0 1 0 12.4 0 a6.2 6.2 0 1 0 -12.4 0zM375.47 123.1 a6.2 6.2 0 1 0 12.4 0 a6.2 6.2 0 1 0 -12.4 0zM321.78 92.1 a6.2 6.2 0 1 0 12.4 0 a6.2 6.2 0 1 0 -12.4 0zM321.78 30.1 a6.2 6.2 0 1 0 12.4 0 a6.2 6.2 0 1 0 -12.4 0zM429.17 278.1 a6.2 6.2 0 1 0 12.4 0 a6.2 6.2 0 1 0 -12.4 0zM482.86 309.1 a6.2 6.2 0 1 0 12.4 0 a6.2 6.2 0 1 0 -12.4 0zM482.86 371.1 a6.2 6.2 0 1 0 12.4 0 a6.2 6.2 0 1 0 -12.4 0zM429.17 402.1 a6.2 6.2 0 1 0 12.4 0 a6.2 6.2 0 1 0 -12.4 0zM429.17 464.1 a6.2 6.2 0 1 0 12.4 0 a6.2 6.2 0 1 0 -12.4 0zM375.47 495.1 a6.2 6.2 0 1 0 12.4 0 a6.2 6.2 0 1 0 -12.4 0zM321.78 464.1 a6.2 6.2 0 1 0 12.4 0 a6.2 6.2 0 1 0 -12.4 0zM375.47 557.1 a6.2 6.2 0 1 0 12.4 0 a6.2 6.2 0 1 0 -12.4 0zM429.17 588.1 a6.2 6.2 0 1 0 12.4 0 a6.2 6.2 0 1 0 -12.4 0zM429.17 650.1 a6.2 6.2 0 1 0 12.4 0 a6.2 6.2 0 1 0 -12.4 0zM321.78 588.1 a6.2 6.2 0 1 0 12.4 0 a6.2 6.2 0 1 0 -12.4 0zM482.86 681.1 a6.2 6.2 0 1 0 12.4 0 a6.2 6.2 0 1 0 -12.4 0zM482.86 743.1 a6.2 6.2 0 1 0 12.4 0 a6.2 6.2 0 1 0 -12.4 0zM429.17 774.1 a6.2 6.2 0 1 0 12.4 0 a6.2 6.2 0 1 0 -12.4 0zM482.86 -0.9 a6.2 6.2 0 1 0 12.4 0 a6.2 6.2 0 1 0 -12.4 0zM536.56 30.1 a6.2 6.2 0 1 0 12.4 0 a6.2 6.2 0 1 0 -12.4 0zM536.56 92.1 a6.2 6.2 0 1 0 12.4 0 a6.2 6.2 0 1 0 -12.4 0zM482.86 123.1 a6.2 6.2 0 1 0 12.4 0 a6.2 6.2 0 1 0 -12.4 0zM482.86 185.1 a6.2 6.2 0 1 0 12.4 0 a6.2 6.2 0 1 0 -12.4 0zM536.56 216.1 a6.2 6.2 0 1 0 12.4 0 a6.2 6.2 0 1 0 -12.4 0zM536.56 278.1 a6.2 6.2 0 1 0 12.4 0 a6.2 6.2 0 1 0 -12.4 0zM429.17 216.1 a6.2 6.2 0 1 0 12.4 0 a6.2 6.2 0 1 0 -12.4 0zM482.86 557.1 a6.2 6.2 0 1 0 12.4 0 a6.2 6.2 0 1 0 -12.4 0zM536.56 588.1 a6.2 6.2 0 1 0 12.4 0 a6.2 6.2 0 1 0 -12.4 0zM536.56 650.1 a6.2 6.2 0 1 0 12.4 0 a6.2 6.2 0 1 0 -12.4 0zM590.25 557.1 a6.2 6.2 0 1 0 12.4 0 a6.2 6.2 0 1 0 -12.4 0zM643.95 588.1 a6.2 6.2 0 1 0 12.4 0 a6.2 6.2 0 1 0 -12.4 0zM643.95 650.1 a6.2 6.2 0 1 0 12.4 0 a6.2 6.2 0 1 0 -12.4 0zM590.25 681.1 a6.2 6.2 0 1 0 12.4 0 a6.2 6.2 0 1 0 -12.4 0z" fill="#03305d"></path></g><defs><mask id="SvgjsMask1337"><rect width="640" height="640" fill="#ffffff"></rect></mask></defs></svg>