<svg xmlns="http://www.w3.org/2000/svg" version="1.1" xmlns:xlink="http://www.w3.org/1999/xlink" xmlns:svgjs="http://svgjs.com/svgjs" width="1931" height="1124" preserveAspectRatio="none" viewBox="0 0 1931 1124"><g mask="url(&quot;#SvgjsMask1046&quot;)" fill="none"><rect width="1931" height="1124" x="0" y="0" fill="rgba(241, 241, 241, 1)"></rect><path d="M444.79 550.63L567.77 621.63L567.77 763.63L444.79 834.63L321.81 763.63L321.81 621.63zM1551.6 -88.37L1674.58 -17.37L1674.58 124.63L1551.6 195.63L1428.62 124.63L1428.62 -17.37z" stroke="#03305d" stroke-width="2"></path><path d="M430.59 550.63 a14.2 14.2 0 1 0 28.4 0 a14.2 14.2 0 1 0 -28.4 0zM553.57 621.63 a14.2 14.2 0 1 0 28.4 0 a14.2 14.2 0 1 0 -28.4 0zM553.57 763.63 a14.2 14.2 0 1 0 28.4 0 a14.2 14.2 0 1 0 -28.4 0zM430.59 834.63 a14.2 14.2 0 1 0 28.4 0 a14.2 14.2 0 1 0 -28.4 0zM307.61 763.63 a14.2 14.2 0 1 0 28.4 0 a14.2 14.2 0 1 0 -28.4 0zM307.61 621.63 a14.2 14.2 0 1 0 28.4 0 a14.2 14.2 0 1 0 -28.4 0zM1537.4 -88.37 a14.2 14.2 0 1 0 28.4 0 a14.2 14.2 0 1 0 -28.4 0zM1660.38 -17.37 a14.2 14.2 0 1 0 28.4 0 a14.2 14.2 0 1 0 -28.4 0zM1660.38 124.63 a14.2 14.2 0 1 0 28.4 0 a14.2 14.2 0 1 0 -28.4 0zM1537.4 195.63 a14.2 14.2 0 1 0 28.4 0 a14.2 14.2 0 1 0 -28.4 0zM1414.42 124.63 a14.2 14.2 0 1 0 28.4 0 a14.2 14.2 0 1 0 -28.4 0zM1414.42 -17.37 a14.2 14.2 0 1 0 28.4 0 a14.2 14.2 0 1 0 -28.4 0z" fill="#03305d"></path></g><defs><mask id="SvgjsMask1046"><rect width="1931" height="1124" fill="#ffffff"></rect></mask></defs></svg>